<?xml version="1.0" encoding="UTF-8"?>
<svg version="1.1" width="1024" height="1024" xmlns="http://www.w3.org/2000/svg" shape-rendering="crispEdges">
<rect x="24" y="24" width="144" height="4" fill="#F2F0E5" />
<rect x="216" y="24" width="112" height="4" fill="#F2F0E5" />
<rect x="384" y="24" width="140" height="4" fill="#868188" />
<rect x="524" y="24" width="4" height="4" fill="#45444F" />
<rect x="564" y="24" width="112" height="4" fill="#868188" />
<rect x="24" y="28" width="4" height="136" fill="#F2F0E5" />
<rect x="28" y="28" width="136" height="136" fill="#B8B5B9" />
<rect x="164" y="28" width="4" height="136" fill="#646365" />
<rect x="208" y="28" width="8" height="4" fill="#F2F0E5" />
<rect x="216" y="28" width="112" height="136" fill="#B8B5B9" />
<rect x="328" y="28" width="8" height="4" fill="#F2F0E5" />
<rect x="384" y="28" width="4" height="140" fill="#868188" />
<rect x="388" y="28" width="136" height="136" fill="#646365" />
<rect x="524" y="28" width="4" height="136" fill="#353440" />
<rect x="556" y="28" width="8" height="4" fill="#868188" />
<rect x="564" y="28" width="112" height="136" fill="#646365" />
<rect x="676" y="28" width="8" height="4" fill="#868188" />
<rect x="204" y="32" width="4" height="8" fill="#F2F0E5" />
<rect x="208" y="32" width="8" height="128" fill="#B8B5B9" />
<rect x="328" y="32" width="8" height="128" fill="#B8B5B9" />
<rect x="336" y="32" width="4" height="8" fill="#868188" />
<rect x="552" y="32" width="4" height="8" fill="#868188" />
<rect x="556" y="32" width="8" height="128" fill="#646365" />
<rect x="676" y="32" width="8" height="128" fill="#646365" />
<rect x="684" y="32" width="4" height="8" fill="#45444F" />
<rect x="200" y="40" width="4" height="112" fill="#F2F0E5" />
<rect x="204" y="40" width="4" height="112" fill="#B8B5B9" />
<rect x="336" y="40" width="4" height="112" fill="#B8B5B9" />
<rect x="340" y="40" width="4" height="112" fill="#646365" />
<rect x="548" y="40" width="4" height="112" fill="#868188" />
<rect x="552" y="40" width="4" height="112" fill="#646365" />
<rect x="684" y="40" width="4" height="112" fill="#646365" />
<rect x="688" y="40" width="4" height="112" fill="#353440" />
<rect x="204" y="152" width="4" height="8" fill="#F2F0E5" />
<rect x="336" y="152" width="4" height="8" fill="#646365" />
<rect x="552" y="152" width="4" height="8" fill="#868188" />
<rect x="684" y="152" width="4" height="8" fill="#353440" />
<rect x="208" y="160" width="8" height="4" fill="#868188" />
<rect x="328" y="160" width="8" height="4" fill="#868188" />
<rect x="556" y="160" width="8" height="4" fill="#45444F" />
<rect x="676" y="160" width="8" height="4" fill="#45444F" />
<rect x="24" y="164" width="144" height="4" fill="#868188" />
<rect x="216" y="164" width="112" height="4" fill="#868188" />
<rect x="388" y="164" width="140" height="4" fill="#45444F" />
<rect x="564" y="164" width="112" height="4" fill="#45444F" />
<rect x="24" y="188" width="136" height="4" fill="#F2F0E5" />
<rect x="160" y="188" width="4" height="4" fill="#868188" />
<rect x="216" y="188" width="108" height="4" fill="#F2F0E5" />
<rect x="384" y="188" width="136" height="4" fill="#868188" />
<rect x="520" y="188" width="4" height="4" fill="#45444F" />
<rect x="564" y="188" width="108" height="4" fill="#868188" />
<rect x="24" y="192" width="4" height="132" fill="#F2F0E5" />
<rect x="28" y="192" width="132" height="132" fill="#B8B5B9" />
<rect x="160" y="192" width="4" height="136" fill="#646365" />
<rect x="164" y="192" width="4" height="4" fill="#868188" />
<rect x="208" y="192" width="8" height="4" fill="#F2F0E5" />
<rect x="216" y="192" width="108" height="132" fill="#B8B5B9" />
<rect x="324" y="192" width="8" height="4" fill="#F2F0E5" />
<rect x="384" y="192" width="4" height="132" fill="#868188" />
<rect x="388" y="192" width="132" height="132" fill="#646365" />
<rect x="520" y="192" width="4" height="136" fill="#353440" />
<rect x="524" y="192" width="4" height="4" fill="#45444F" />
<rect x="556" y="192" width="8" height="4" fill="#868188" />
<rect x="564" y="192" width="108" height="132" fill="#646365" />
<rect x="672" y="192" width="8" height="4" fill="#868188" />
<rect x="164" y="196" width="4" height="136" fill="#646365" />
<rect x="204" y="196" width="4" height="8" fill="#F2F0E5" />
<rect x="208" y="196" width="8" height="124" fill="#B8B5B9" />
<rect x="324" y="196" width="8" height="124" fill="#B8B5B9" />
<rect x="332" y="196" width="4" height="8" fill="#868188" />
<rect x="524" y="196" width="4" height="136" fill="#353440" />
<rect x="552" y="196" width="4" height="8" fill="#868188" />
<rect x="556" y="196" width="8" height="124" fill="#646365" />
<rect x="672" y="196" width="8" height="124" fill="#646365" />
<rect x="680" y="196" width="4" height="8" fill="#45444F" />
<rect x="336" y="200" width="4" height="4" fill="#868188" />
<rect x="684" y="200" width="4" height="4" fill="#45444F" />
<rect x="200" y="204" width="4" height="108" fill="#F2F0E5" />
<rect x="204" y="204" width="4" height="108" fill="#B8B5B9" />
<rect x="332" y="204" width="4" height="108" fill="#B8B5B9" />
<rect x="336" y="204" width="4" height="120" fill="#646365" />
<rect x="548" y="204" width="4" height="108" fill="#868188" />
<rect x="552" y="204" width="4" height="108" fill="#646365" />
<rect x="680" y="204" width="4" height="108" fill="#646365" />
<rect x="684" y="204" width="4" height="120" fill="#353440" />
<rect x="340" y="208" width="4" height="108" fill="#646365" />
<rect x="688" y="208" width="4" height="108" fill="#353440" />
<rect x="204" y="312" width="4" height="8" fill="#F2F0E5" />
<rect x="332" y="312" width="4" height="8" fill="#646365" />
<rect x="552" y="312" width="4" height="8" fill="#868188" />
<rect x="680" y="312" width="4" height="8" fill="#353440" />
<rect x="208" y="320" width="8" height="4" fill="#868188" />
<rect x="324" y="320" width="12" height="8" fill="#868188" />
<rect x="556" y="320" width="8" height="4" fill="#45444F" />
<rect x="672" y="320" width="12" height="8" fill="#45444F" />
<rect x="24" y="324" width="136" height="4" fill="#868188" />
<rect x="212" y="324" width="112" height="4" fill="#868188" />
<rect x="384" y="324" width="136" height="4" fill="#45444F" />
<rect x="560" y="324" width="112" height="4" fill="#45444F" />
<rect x="28" y="328" width="136" height="4" fill="#868188" />
<rect x="220" y="328" width="108" height="4" fill="#868188" />
<rect x="388" y="328" width="136" height="4" fill="#45444F" />
<rect x="568" y="328" width="108" height="4" fill="#45444F" />
<rect x="24" y="372" width="144" height="4" fill="#F2F0E5" />
<rect x="216" y="372" width="108" height="4" fill="#F2F0E5" />
<rect x="384" y="372" width="144" height="4" fill="#868188" />
<rect x="564" y="372" width="112" height="4" fill="#868188" />
<rect x="24" y="376" width="4" height="44" fill="#F2F0E5" />
<rect x="28" y="376" width="136" height="44" fill="#B8B5B9" />
<rect x="164" y="376" width="4" height="48" fill="#868188" />
<rect x="208" y="376" width="8" height="4" fill="#F2F0E5" />
<rect x="216" y="376" width="108" height="44" fill="#B8B5B9" />
<rect x="324" y="376" width="8" height="4" fill="#F2F0E5" />
<rect x="384" y="376" width="4" height="44" fill="#868188" />
<rect x="388" y="376" width="136" height="44" fill="#646365" />
<rect x="524" y="376" width="4" height="48" fill="#45444F" />
<rect x="556" y="376" width="8" height="4" fill="#868188" />
<rect x="564" y="376" width="112" height="44" fill="#646365" />
<rect x="676" y="376" width="8" height="4" fill="#868188" />
<rect x="204" y="380" width="4" height="8" fill="#F2F0E5" />
<rect x="208" y="380" width="8" height="36" fill="#B8B5B9" />
<rect x="324" y="380" width="8" height="36" fill="#B8B5B9" />
<rect x="332" y="380" width="4" height="8" fill="#868188" />
<rect x="552" y="380" width="4" height="8" fill="#868188" />
<rect x="556" y="380" width="8" height="36" fill="#646365" />
<rect x="676" y="380" width="8" height="36" fill="#646365" />
<rect x="684" y="380" width="4" height="8" fill="#45444F" />
<rect x="200" y="388" width="4" height="20" fill="#F2F0E5" />
<rect x="204" y="388" width="4" height="20" fill="#B8B5B9" />
<rect x="332" y="388" width="4" height="20" fill="#B8B5B9" />
<rect x="336" y="388" width="4" height="20" fill="#868188" />
<rect x="548" y="388" width="4" height="20" fill="#868188" />
<rect x="552" y="388" width="4" height="20" fill="#646365" />
<rect x="684" y="388" width="4" height="20" fill="#646365" />
<rect x="688" y="388" width="4" height="20" fill="#45444F" />
<rect x="200" y="408" width="4" height="8" fill="#646365" />
<rect x="204" y="408" width="4" height="8" fill="#F2F0E5" />
<rect x="332" y="408" width="4" height="8" fill="#868188" />
<rect x="336" y="408" width="4" height="8" fill="#646365" />
<rect x="548" y="408" width="4" height="8" fill="#353440" />
<rect x="552" y="408" width="4" height="8" fill="#868188" />
<rect x="684" y="408" width="4" height="8" fill="#45444F" />
<rect x="688" y="408" width="4" height="8" fill="#353440" />
<rect x="204" y="416" width="4" height="8" fill="#646365" />
<rect x="208" y="416" width="8" height="4" fill="#868188" />
<rect x="324" y="416" width="8" height="4" fill="#868188" />
<rect x="332" y="416" width="4" height="8" fill="#646365" />
<rect x="552" y="416" width="4" height="8" fill="#353440" />
<rect x="556" y="416" width="8" height="4" fill="#45444F" />
<rect x="676" y="416" width="8" height="4" fill="#45444F" />
<rect x="684" y="416" width="4" height="8" fill="#353440" />
<rect x="24" y="420" width="140" height="4" fill="#868188" />
<rect x="208" y="420" width="8" height="8" fill="#646365" />
<rect x="216" y="420" width="108" height="4" fill="#868188" />
<rect x="324" y="420" width="8" height="8" fill="#646365" />
<rect x="384" y="420" width="140" height="4" fill="#45444F" />
<rect x="556" y="420" width="8" height="8" fill="#353440" />
<rect x="564" y="420" width="112" height="4" fill="#45444F" />
<rect x="676" y="420" width="8" height="8" fill="#353440" />
<rect x="24" y="424" width="144" height="8" fill="#646365" />
<rect x="216" y="424" width="108" height="8" fill="#646365" />
<rect x="384" y="424" width="144" height="8" fill="#353440" />
<rect x="564" y="424" width="112" height="8" fill="#353440" />
<rect x="24" y="444" width="144" height="4" fill="#F2F0E5" />
<rect x="216" y="444" width="108" height="4" fill="#F2F0E5" />
<rect x="384" y="444" width="144" height="4" fill="#868188" />
<rect x="564" y="444" width="112" height="4" fill="#868188" />
<rect x="24" y="448" width="4" height="44" fill="#F2F0E5" />
<rect x="28" y="448" width="136" height="44" fill="#B8B5B9" />
<rect x="164" y="448" width="4" height="48" fill="#868188" />
<rect x="208" y="448" width="8" height="4" fill="#F2F0E5" />
<rect x="216" y="448" width="108" height="44" fill="#B8B5B9" />
<rect x="324" y="448" width="8" height="4" fill="#F2F0E5" />
<rect x="384" y="448" width="4" height="44" fill="#868188" />
<rect x="388" y="448" width="136" height="44" fill="#646365" />
<rect x="524" y="448" width="4" height="48" fill="#45444F" />
<rect x="556" y="448" width="8" height="4" fill="#868188" />
<rect x="564" y="448" width="112" height="44" fill="#646365" />
<rect x="676" y="448" width="8" height="4" fill="#868188" />
<rect x="204" y="452" width="4" height="8" fill="#F2F0E5" />
<rect x="208" y="452" width="8" height="36" fill="#B8B5B9" />
<rect x="324" y="452" width="8" height="36" fill="#B8B5B9" />
<rect x="332" y="452" width="4" height="8" fill="#868188" />
<rect x="552" y="452" width="4" height="8" fill="#868188" />
<rect x="556" y="452" width="8" height="36" fill="#646365" />
<rect x="676" y="452" width="8" height="36" fill="#646365" />
<rect x="684" y="452" width="4" height="8" fill="#45444F" />
<rect x="200" y="460" width="4" height="20" fill="#F2F0E5" />
<rect x="204" y="460" width="4" height="20" fill="#B8B5B9" />
<rect x="332" y="460" width="4" height="20" fill="#B8B5B9" />
<rect x="336" y="460" width="4" height="20" fill="#868188" />
<rect x="548" y="460" width="4" height="20" fill="#868188" />
<rect x="552" y="460" width="4" height="20" fill="#646365" />
<rect x="684" y="460" width="4" height="20" fill="#646365" />
<rect x="688" y="460" width="4" height="20" fill="#45444F" />
<rect x="200" y="480" width="4" height="4" fill="#646365" />
<rect x="204" y="480" width="4" height="8" fill="#F2F0E5" />
<rect x="332" y="480" width="4" height="8" fill="#868188" />
<rect x="336" y="480" width="4" height="4" fill="#646365" />
<rect x="548" y="480" width="4" height="4" fill="#353440" />
<rect x="552" y="480" width="4" height="8" fill="#868188" />
<rect x="684" y="480" width="4" height="8" fill="#45444F" />
<rect x="688" y="480" width="4" height="4" fill="#353440" />
<rect x="204" y="488" width="4" height="4" fill="#646365" />
<rect x="208" y="488" width="8" height="4" fill="#868188" />
<rect x="324" y="488" width="8" height="4" fill="#868188" />
<rect x="332" y="488" width="4" height="4" fill="#646365" />
<rect x="552" y="488" width="4" height="4" fill="#353440" />
<rect x="556" y="488" width="8" height="4" fill="#45444F" />
<rect x="676" y="488" width="8" height="4" fill="#45444F" />
<rect x="684" y="488" width="4" height="4" fill="#353440" />
<rect x="24" y="492" width="140" height="4" fill="#868188" />
<rect x="208" y="492" width="8" height="4" fill="#646365" />
<rect x="216" y="492" width="108" height="4" fill="#868188" />
<rect x="324" y="492" width="8" height="4" fill="#646365" />
<rect x="384" y="492" width="140" height="4" fill="#45444F" />
<rect x="556" y="492" width="8" height="4" fill="#353440" />
<rect x="564" y="492" width="112" height="4" fill="#45444F" />
<rect x="676" y="492" width="8" height="4" fill="#353440" />
<rect x="24" y="496" width="144" height="4" fill="#646365" />
<rect x="216" y="496" width="108" height="4" fill="#646365" />
<rect x="384" y="496" width="144" height="4" fill="#353440" />
<rect x="564" y="496" width="112" height="4" fill="#353440" />
<rect x="24" y="524" width="144" height="4" fill="#C2D368" />
<rect x="216" y="524" width="108" height="4" fill="#C2D368" />
<rect x="384" y="524" width="96" height="4" fill="#B8B5B9" />
<rect x="500" y="524" width="96" height="4" fill="#646365" />
<rect x="24" y="528" width="4" height="44" fill="#C2D368" />
<rect x="28" y="528" width="136" height="44" fill="#8AB060" />
<rect x="164" y="528" width="4" height="48" fill="#697D54" />
<rect x="208" y="528" width="8" height="4" fill="#C2D368" />
<rect x="216" y="528" width="108" height="44" fill="#8AB060" />
<rect x="324" y="528" width="8" height="4" fill="#C2D368" />
<rect x="384" y="528" width="4" height="92" fill="#B8B5B9" />
<rect x="388" y="528" width="84" height="4" fill="#868188" />
<rect x="472" y="528" width="4" height="88" fill="#F2F0E5" />
<rect x="476" y="528" width="4" height="92" fill="#B8B5B9" />
<rect x="500" y="528" width="4" height="92" fill="#646365" />
<rect x="504" y="528" width="84" height="4" fill="#45444F" />
<rect x="588" y="528" width="4" height="88" fill="#868188" />
<rect x="592" y="528" width="4" height="92" fill="#646365" />
<rect x="204" y="532" width="4" height="8" fill="#C2D368" />
<rect x="208" y="532" width="8" height="36" fill="#8AB060" />
<rect x="324" y="532" width="8" height="36" fill="#8AB060" />
<rect x="332" y="532" width="4" height="8" fill="#697D54" />
<rect x="388" y="532" width="4" height="80" fill="#646365" />
<rect x="392" y="532" width="80" height="80" fill="#B8B5B9" />
<rect x="504" y="532" width="4" height="80" fill="#353440" />
<rect x="508" y="532" width="80" height="80" fill="#646365" />
<rect x="200" y="540" width="4" height="20" fill="#C2D368" />
<rect x="204" y="540" width="4" height="20" fill="#8AB060" />
<rect x="332" y="540" width="4" height="20" fill="#8AB060" />
<rect x="336" y="540" width="4" height="20" fill="#697D54" />
<rect x="200" y="560" width="4" height="8" fill="#4E584A" />
<rect x="204" y="560" width="4" height="8" fill="#C2D368" />
<rect x="332" y="560" width="4" height="8" fill="#697D54" />
<rect x="336" y="560" width="4" height="8" fill="#4E584A" />
<rect x="204" y="568" width="4" height="8" fill="#4E584A" />
<rect x="208" y="568" width="8" height="4" fill="#697D54" />
<rect x="324" y="568" width="8" height="4" fill="#697D54" />
<rect x="332" y="568" width="4" height="8" fill="#4E584A" />
<rect x="24" y="572" width="140" height="4" fill="#697D54" />
<rect x="208" y="572" width="8" height="8" fill="#4E584A" />
<rect x="216" y="572" width="108" height="4" fill="#697D54" />
<rect x="324" y="572" width="8" height="8" fill="#4E584A" />
<rect x="24" y="576" width="144" height="8" fill="#4E584A" />
<rect x="216" y="576" width="108" height="8" fill="#4E584A" />
<rect x="24" y="596" width="144" height="4" fill="#C2D368" />
<rect x="216" y="596" width="108" height="4" fill="#C2D368" />
<rect x="24" y="600" width="4" height="44" fill="#C2D368" />
<rect x="28" y="600" width="136" height="44" fill="#8AB060" />
<rect x="164" y="600" width="4" height="48" fill="#697D54" />
<rect x="208" y="600" width="8" height="4" fill="#C2D368" />
<rect x="216" y="600" width="108" height="44" fill="#8AB060" />
<rect x="324" y="600" width="8" height="4" fill="#C2D368" />
<rect x="204" y="604" width="4" height="8" fill="#C2D368" />
<rect x="208" y="604" width="8" height="36" fill="#8AB060" />
<rect x="324" y="604" width="8" height="36" fill="#8AB060" />
<rect x="332" y="604" width="4" height="8" fill="#697D54" />
<rect x="200" y="612" width="4" height="20" fill="#C2D368" />
<rect x="204" y="612" width="4" height="20" fill="#8AB060" />
<rect x="332" y="612" width="4" height="20" fill="#8AB060" />
<rect x="336" y="612" width="4" height="20" fill="#697D54" />
<rect x="388" y="612" width="84" height="4" fill="#F2F0E5" />
<rect x="504" y="612" width="84" height="4" fill="#868188" />
<rect x="388" y="616" width="88" height="4" fill="#B8B5B9" />
<rect x="504" y="616" width="88" height="4" fill="#646365" />
<rect x="200" y="632" width="4" height="4" fill="#4E584A" />
<rect x="204" y="632" width="4" height="8" fill="#C2D368" />
<rect x="332" y="632" width="4" height="8" fill="#697D54" />
<rect x="336" y="632" width="4" height="4" fill="#4E584A" />
<rect x="204" y="640" width="4" height="4" fill="#4E584A" />
<rect x="208" y="640" width="8" height="4" fill="#697D54" />
<rect x="324" y="640" width="8" height="4" fill="#697D54" />
<rect x="332" y="640" width="4" height="4" fill="#4E584A" />
<rect x="24" y="644" width="140" height="4" fill="#697D54" />
<rect x="208" y="644" width="8" height="4" fill="#4E584A" />
<rect x="216" y="644" width="108" height="4" fill="#697D54" />
<rect x="324" y="644" width="8" height="4" fill="#4E584A" />
<rect x="24" y="648" width="144" height="4" fill="#4E584A" />
<rect x="216" y="648" width="108" height="4" fill="#4E584A" />
</svg>
